<svg id="Android" xmlns="http://www.w3.org/2000/svg" width="14.237" height="16.688" viewBox="0 0 14.237 16.688">
  <path id="Path_32200" data-name="Path 32200" d="M23.278,14.265A1.033,1.033,0,0,0,22.258,15.3v4.174a1.02,1.02,0,1,0,2.039,0V15.3A1.033,1.033,0,0,0,23.278,14.265Zm-12.2,0A1.033,1.033,0,0,0,10.061,15.3v4.174a1.02,1.02,0,1,0,2.039,0V15.3A1.033,1.033,0,0,0,11.08,14.265ZM12.609,20a1.606,1.606,0,0,0,.45,1.109,1.483,1.483,0,0,0,1.079.453V23.65a1.02,1.02,0,1,0,2.039,0V21.563H18.2V23.65a1.02,1.02,0,1,0,2.039,0V21.563a1.531,1.531,0,0,0,1.079-.453A1.606,1.606,0,0,0,21.772,20V14.265H12.609Zm9.116-6.785a4.668,4.668,0,0,0-.652-1.944,4.464,4.464,0,0,0-1.4-1.467l.51-1.049a.529.529,0,0,0-.076-.57.506.506,0,0,0-.552-.146.537.537,0,0,0-.3.262l-.51,1.049-.13-.06a4.416,4.416,0,0,0-2.881,0l-.13.06L15.1,8.3a.537.537,0,0,0-.3-.262.5.5,0,0,0-.391.024.538.538,0,0,0-.261.3.5.5,0,0,0,.024.394l.51,1.049a4.691,4.691,0,0,0-2.051,3.411v.525h9.116v-.525Zm-6.333-1.037a.512.512,0,0,1-.356-.155.525.525,0,0,1-.154-.37.479.479,0,0,1,.154-.37.485.485,0,0,1,.711,0,.521.521,0,0,1,0,.739A.513.513,0,0,1,15.392,12.178Zm3.585,0a.512.512,0,0,1-.356-.155.525.525,0,0,1-.154-.37.48.48,0,0,1,.154-.37.485.485,0,0,1,.711,0,.521.521,0,0,1,0,.739A.513.513,0,0,1,18.978,12.178Z" transform="translate(-10.061 -8.011)" fill="#fff"/>
</svg>
