<svg id="Apple" xmlns="http://www.w3.org/2000/svg" width="13.849" height="16.536" viewBox="0 0 13.849 16.536">
  <path id="Path_32198" data-name="Path 32198" d="M21.926,22.939a2.321,2.321,0,0,1-2.812.321,3.54,3.54,0,0,0-2.958,0,2.194,2.194,0,0,1-2.794-.321c-4.456-4.62-3.8-11.656,1.26-11.913,1.233.064,2.091.68,2.812.735,1.077-.22,2.109-.854,3.26-.772a3.935,3.935,0,0,1,3.1,1.653,3.643,3.643,0,0,0,.438,6.549,9.339,9.339,0,0,1-2.319,3.757ZM17.342,10.97a3.754,3.754,0,0,1,3.415-3.9C21.022,9.436,18.62,11.2,17.342,10.97Z" transform="translate(-10.387 -7.066)" fill="#fff"/>
</svg>
