<svg xmlns="http://www.w3.org/2000/svg" xmlns:xlink="http://www.w3.org/1999/xlink" width="16" height="16" viewBox="0 0 16 16">
  <defs>
    <clipPath id="clip-path">
      <rect id="Rectangle_281" data-name="Rectangle 281" width="16" height="16" transform="translate(0.215 0.215)" fill="#fff"/>
    </clipPath>
  </defs>
  <g id="style_stroke" data-name="style=stroke" transform="translate(-0.215 -0.215)" clip-path="url(#clip-path)">
    <g id="web" transform="translate(0.513 0.513)">
      <path id="vector_Stroke_" data-name="vector (Stroke)" d="M7.385,1.91A35.46,35.46,0,0,0,6.329,6.283a13.715,13.715,0,0,0,2.123.2,13.716,13.716,0,0,0,2.123-.2A35.461,35.461,0,0,0,9.518,1.91a6.711,6.711,0,0,0-2.132,0Zm3.348.318a35.042,35.042,0,0,1,.9,3.86c1.031-.212,2-.472,2.711-.675A6.651,6.651,0,0,0,10.734,2.228Zm4.025,4.183c-.747.217-1.828.509-2.98.744a12.222,12.222,0,0,1,.076,1.3,13.8,13.8,0,0,1-.155,1.921c1.379-.288,2.644-.655,3.294-.855a6.683,6.683,0,0,0-.235-3.107Zm-.083,4.323c-.8.232-1.959.54-3.168.773-.234,1.209-.541,2.364-.773,3.168A6.648,6.648,0,0,0,14.675,10.734ZM9.518,14.993c.2-.65.567-1.915.854-3.294a13.8,13.8,0,0,1-1.921.155A13.8,13.8,0,0,1,6.531,11.7c.288,1.379.655,2.644.855,3.294a6.712,6.712,0,0,0,2.133,0Zm-3.348-.318c-.232-.8-.54-1.959-.773-3.168-1.209-.234-2.364-.541-3.168-.773A6.648,6.648,0,0,0,6.169,14.675ZM1.91,9.518c.65.2,1.915.567,3.294.855a13.806,13.806,0,0,1-.155-1.921,12.226,12.226,0,0,1,.076-1.3c-1.152-.234-2.234-.526-2.98-.744A6.682,6.682,0,0,0,1.91,9.518Zm.651-4.1c.707.2,1.68.463,2.711.675a35.044,35.044,0,0,1,.9-3.86A6.651,6.651,0,0,0,2.561,5.413ZM6.185,7.348a10.944,10.944,0,0,0-.062,1.1,13.734,13.734,0,0,0,.2,2.129,13.734,13.734,0,0,0,2.129.2,13.735,13.735,0,0,0,2.129-.2,13.735,13.735,0,0,0,.2-2.129,10.958,10.958,0,0,0-.062-1.1,14.7,14.7,0,0,1-2.266.207A14.7,14.7,0,0,1,6.185,7.348ZM6.858.915A7.7,7.7,0,1,1,1.319,5.541,7.731,7.731,0,0,1,6.858.915Z" transform="translate(-0.75 -0.75)" fill="#fff" fill-rule="evenodd"/>
    </g>
  </g>
</svg>
